<?xml version="1.0" encoding="UTF-8"?>
<svg id="Layer_1" xmlns="http://www.w3.org/2000/svg" version="1.1" viewBox="0 0 686.8 426.3">
  <!-- Generator: Adobe Illustrator 29.0.1, SVG Export Plug-In . SVG Version: 2.1.0 Build 192)  -->
  <defs>
    <style>
      .st0 {
        fill: #fff;
      }

      .st1 {
        fill: red;
      }

      .st2 {
        isolation: isolate;
      }
    </style>
  </defs>
  <path class="st1" d="M674.2,213.2l-27.9,12.7c-18.1,8.3-25.8,29.9-16.8,47.7l13.8,27.3-25.3-3.8c-21.7-3.3-41,13.9-40.3,35.8l.8,25.5-19.9-10.3c-20.4-10.6-45.3,1-50.4,23.4l-5,21.8-16.3-13.5c-18-14.9-45.3-8.4-54.6,13.1l-8.4,19.3-13.4-15.5c-15.4-17.8-43.6-15.7-56.2,4.2l-11,17.4-11-17.4c-12.6-19.9-40.8-22-56.2-4.2l-13.4,15.5-8.4-19.3c-9.3-21.5-36.6-28-54.6-13.1l-16.3,13.5-5-21.8c-5.1-22.4-30-33.9-50.4-23.4l-19.9,10.3.8-25.5c.7-21.9-18.6-39.1-40.3-35.8l-25.3,3.8,13.8-27.3c9-17.8,1.3-39.5-16.8-47.7l-27.9-12.7,27.9-12.7c18.1-8.3,25.8-29.9,16.8-47.7l-13.8-27.3,25.3,3.8c21.7,3.3,41-13.9,40.3-35.8l-.8-25.5,19.9,10.3c20.4,10.6,45.3-1,50.4-23.4l5-21.8,16.3,13.5c18,14.9,45.3,8.4,54.6-13.1l8.4-19.3,13.4,15.5c15.4,17.8,43.6,15.7,56.2-4.2l11-17.4,11,17.4c12.6,19.9,40.8,22,56.2,4.2l13.4-15.5,8.4,19.3c9.3,21.5,36.6,28,54.6,13.1l16.3-13.5,5,21.8c5.1,22.4,30,33.9,50.4,23.4l19.9-10.3-.8,25.5c-.7,21.9,18.6,39.1,40.3,35.8l25.3-3.8-13.8,27.3c-9,17.8-1.3,39.5,16.8,47.7l27.9,12.7Z"/>
  <g class="st2">
    <g>
      <path class="st0" d="M163.7,153.5c-10.1,3-19.3,10.2-27.4,21.5-8.3,11.7-14.6,24.6-18.6,38.6-4,13.8-5.4,25-4.1,33.4,1.8,11.9,15.3,31.5,69.6,57.6l5.5,2.7-5,4.8c-11.5,11.2-22.6,20.1-33.1,26.3l-3.5,2.1-1.7-3.6c-2.4-5.1-5.4-13.1-9.1-24.4-3.8.2-7.5.9-11,1.9-8.4,2.5-14.5,6.7-18.7,12.9-4,6-5.3,12.4-3.9,19.7.4,2.3,2.5,6,9.6,10.7,6.2,4.1,13.9,7.1,22.7,8.9,8.7,1.8,16.8,1.5,24.3-.7,9.9-2.9,20.4-8.7,31.3-17,10.9-8.4,19.7-17.6,26.3-27.6,6.1-9.2,8.6-17.3,7.4-24.2-.4-1.8-1.9-4.6-7-8-4.8-3.3-12.2-7.2-21.8-11.6h0c-13.2-6.5-23.6-12.4-30.8-17.6-7.9-5.6-12.4-12.5-13.6-20.4-.9-5.9-.5-13,1-21,1.5-8,3.7-15.2,6.7-21.6,3.4-7.4,7.1-11.6,11.1-12.8s5.3.8,7.1,4.9c1.2,2.6,2.1,6.1,2.7,10.7s1.3,12.6,1.4,21.5c5.1.5,10.1,0,14.9-1.4,7.3-2.2,12.9-5.8,17.1-11.2,3.9-4.9,5.4-10.3,4.5-16.4s-4.4-13.9-10.1-20.7c-5.8-7-12.8-12.4-20.9-16-7.8-3.5-15.5-4.2-22.9-2"/>
      <path class="st1" d="M147.2,340.5l3.5-2.1c10.4-6.3,21.5-15.1,33.1-26.3l5-4.8-5.5-2.7c-54.4-26.1-67.9-45.7-69.6-57.6-1.2-8.4.2-19.6,4.1-33.4,4-13.9,10.3-26.9,18.6-38.6,8-11.3,17.2-18.5,27.4-21.5,7.4-2.2,15.1-1.5,22.9,2,8.1,3.6,15.2,9,20.9,16,5.7,6.9,9,13.8,10.1,20.7s-.6,11.5-4.5,16.4c-4.3,5.4-9.8,9-17.1,11.2s-9.8,1.9-14.9,1.4c-.1-8.9-.6-16.1-1.4-21.5s-1.6-8.1-2.7-10.7c-1.8-4.1-4.2-5.8-7.1-4.9s-7.6,5.4-11.1,12.8c-2.9,6.4-5.2,13.6-6.7,21.6-1.5,8.1-1.8,15.2-1,21,1.2,7.9,5.7,14.8,13.6,20.4,7.2,5.2,17.5,11.1,30.8,17.5h0c9.6,4.5,17,8.4,21.8,11.6,5.1,3.4,6.6,6.3,7,8,1.1,6.9-1.3,15-7.4,24.2-6.6,9.9-15.4,19.2-26.3,27.6-10.9,8.4-21.4,14.1-31.3,17-7.5,2.2-15.6,2.4-24.3.7-8.8-1.8-16.5-4.8-22.7-8.9-7.1-4.7-9.1-8.4-9.6-10.7-1.4-7.3-.1-13.7,3.9-19.7,4.2-6.2,10.3-10.4,18.7-12.9,3.5-1,7.2-1.7,11-1.9,3.8,11.3,6.8,19.3,9.1,24.4l1.7,3.6M162.4,144.7c-12,3.6-22.9,12-32.2,25-9,12.6-15.8,26.7-20.2,41.8-4.4,15.3-5.9,27.9-4.5,37.8,2.9,19.6,25.2,39.6,68.2,60.9-7.9,7.3-15.5,13.3-22.8,18-2.2-5.2-4.8-12.7-8-22.3l-.9-2.6h-2.6c-5.4,0-10.6.9-15.6,2.3-10.3,3.1-18.3,8.7-23.6,16.7-5.5,8.3-7.4,17.5-5.5,27.4,1.1,5.7,5.3,10.9,12.9,15.9,7,4.6,15.4,7.9,25.1,9.8,9.8,2,19.2,1.7,27.8-.8,10.9-3.2,22.3-9.4,34.1-18.5,11.7-9,21.3-19.1,28.5-30,1.5-2.2,2.8-4.4,3.9-6.6,0-.2,0-.4,0-.6-.4-2.4-.7-8.5.7-33.1-1.5-1.7-3.4-3.3-5.7-4.8-5.1-3.5-12.8-7.5-22.7-12.1-12.9-6.3-22.9-12-29.7-16.9-6.1-4.4-9.7-9.4-10.5-15s-.4-10.7.9-17.7c1.3-7.1,3.3-13.5,5.9-19.1,1.7-3.6,3-5.5,3.9-6.5.8,1.8,1.4,4.6,2,8.1.8,5.7,1.3,13.7,1.3,23.7v3.5s3.1.5,3.1.5c7.2,1.2,14.3.8,21.1-1.2,8.9-2.6,16.2-7.4,21.6-14.3,5.7-7.2,8-15.5,6.7-24.4-1.3-8.5-5.2-16.9-11.9-24.9-6.5-7.9-14.4-13.9-23.5-18-9.4-4.2-18.7-4.9-27.8-2.2"/>
      <path class="st0" d="M244,132.8c-.6.9-2.4,4.8-3.5,19.6-1.1,14.8-1.7,34.2-2,57.4l-.2,13.7c-.4,20.4-1.1,40.2-2.3,58.9-1.5,25.6-1.3,32.5-1,34.3s1.2,3.9,6.2,7.6c4.3,3.3,9.2,5.9,14.5,7.8,6.2,2.3,9.6,2.2,11.4,1.8h.1c1.9-.4,5-1.2,9.1-2.4,10.1-3,21.5-7.1,33.8-12.2,11.9-4.9,23.1-10.2,33.4-15.7,0,0,0-.1.1-.2-2-2.6-3.6-5.7-5-9.3l-.5-1.3,3.8-16.5c.2-1,.5-2.1.7-3.1-.2-.3-.5-.6-.8-.9-2.7-3-5.9-5-9.9-6.1-18.4,13-38,24-58.4,32.4l-5.5,2.3.5-6.5c1.6-21.8,2.7-39.4,3.2-52.3.9-18.2,2.6-40.1,5-65,.1-2,.5-6.9,1.3-15.2,1-10.8.8-13.5.7-14.1-.1-.9-1.1-3.5-6.6-7.1-4.7-3-10.1-5.4-16-7-6.5-1.7-10.2-1.6-12.1-1.1"/>
      <path class="st1" d="M242.3,124.1c-5.7,1.7-8.5,9.9-9.8,28.4-1.1,15-1.8,34.6-2,58l-.2,13.7c-.4,20.2-1.1,39.9-2.3,58.5,0,1.1-.1,2.2-.2,3.2-1.4,24.6-1.1,30.7-.7,33.1s0,.4,0,.6c.8,4.3,3.8,8.4,9.1,12.4,4.9,3.7,10.4,6.6,16.3,8.8,6.3,2.3,11.3,3,15.3,2,2.1-.4,5.4-1.3,9.8-2.6,10.3-3.1,22-7.3,34.6-12.5,12.6-5.2,24.5-10.8,35.4-16.8l1.1-.6.7-1.2c0,0,0-.2.1-.2-2.2-1.5-4.2-3.4-5.9-5.7,0,0,0,.1-.1.2-10.3,5.6-21.5,10.9-33.4,15.7-12.3,5.1-23.7,9.2-33.8,12.2-4.1,1.2-7.2,2-9.1,2.4h-.1c-1.8.4-5.1.5-11.4-1.8-5.3-1.9-10.2-4.6-14.5-7.8-5-3.7-6-6.4-6.2-7.6-.3-1.8-.5-8.7,1-34.3,1.2-18.7,1.9-38.6,2.3-58.9l.2-13.7c.3-23.2,1-42.5,2-57.4,1-14.8,2.9-18.7,3.5-19.6,2-.5,5.7-.6,12.1,1.1,5.9,1.6,11.3,3.9,16,7,5.6,3.6,6.5,6.2,6.6,7.1s.3,3.2-.7,14.1c-.8,8.3-1.2,13.2-1.3,15.2-2.5,24.9-4.2,46.8-5,65-.5,12.9-1.6,30.5-3.2,52.3l-.5,6.5,5.5-2.3c20.3-8.5,40-19.4,58.4-32.4,4,1.1,7.3,3.1,9.9,6.1.3.3.5.6.8.9.8-3.5,1.6-7,2.4-10.4-3.5-3-7.7-4.9-12.5-5.9l-1.6-.3-1.4,1c-16.6,11.9-34.3,22.1-52.6,30.2,1.4-19,2.3-34.4,2.7-46.1.8-18,2.5-39.7,5-64.5v-.3c.1-1.8.5-6.8,1.3-14.9,1.1-11.4.9-14.8.7-16.5-.7-4.7-4-8.8-10.1-12.8-5.3-3.4-11.4-6-17.9-7.8-7-1.8-12.3-2.1-16.4-.9"/>
      <path class="st0" d="M398.9,204.9l1.1-6.9c4.2-25.8,8.8-50.6,13.7-73.5l4.1-19.5,3.7,18.7c3,14.9,6.5,36.3,10.5,63.5l.6,3.8-3.4,1.5c-8,3.6-16.2,7-24.4,10.1l-6,2.2M401.1,86.2c-1.5,1.5-6.5,9.8-18,54.3-9.5,37-20.7,83.1-33.2,137.3l-3.1,13.4c2.4,5.7,5.7,9.5,10,11.3,4.7,2.1,10.3,2.1,16.6.3s6.7-2.4,10.3-4.3c3.3-19.4,6.2-37.5,8.7-53.8l.4-2.9,2.5-1c6-2.4,18.6-7.8,37.4-16.1l4.4-1.9.7,4.9c4.3,29.3,5.9,34.9,6.3,36,.3.8,1.7,2.8,7.2,4.8,4.7,1.7,10.1,2.7,15.8,3,5.7.3,10.4,0,13.9-1.1s1.4-.4,1.8-.6c.3-1.3.6-4.9-.8-14.1s-3.4-18.8-6.4-31c-3-12.3-4.9-20.2-5.6-23.4l-5.6-22.5c-3.7-16-7.9-32.6-12.7-49.5-4.7-16.7-8.1-27.8-10.1-32.8-.3-.9-1.9-3.2-8.6-5.9-5.6-2.3-11.8-3.8-18.4-4.6-7.6-.9-11.6-.5-13.7,0"/>
      <path class="st1" d="M409.2,191.7c2.6-15.6,5.4-30.8,8.2-45.4,1.9,11.1,4,24.3,6.2,39.3-4.8,2.1-9.6,4.1-14.5,6M417.9,104.9l-4.1,19.5c-4.9,22.9-9.5,47.7-13.7,73.5l-1.1,6.9,6-2.2c8.2-3.1,16.4-6.4,24.4-10.1l3.4-1.5-.6-3.8c-4-27.2-7.6-48.6-10.5-63.5l-3.7-18.7M373.3,302.8c-6.3,1.9-11.9,1.8-16.6-.3-4.3-1.9-7.6-5.6-10-11.3l3.1-13.4c12.5-54.1,23.7-100.3,33.2-137.3,11.5-44.5,16.5-52.8,18-54.3,2.1-.5,6.2-.9,13.7,0,6.6.8,12.8,2.3,18.4,4.6,6.7,2.7,8.3,5.1,8.6,5.9,2,5,5.4,16.1,10.1,32.8,4.7,16.8,9,33.5,12.7,49.5l5.6,22.5c.7,3.2,2.6,11.1,5.6,23.4,3,12.2,5.2,22.7,6.4,31s1,12.8.8,14.1c-.4.1-1,.3-1.8.6-3.5,1-8.2,1.4-13.9,1.1-5.8-.3-11.1-1.4-15.8-3-5.5-2-6.9-4-7.2-4.8-.5-1.1-2-6.8-6.3-36l-.7-4.9-4.4,1.9c-18.9,8.3-31.5,13.7-37.4,16.1l-2.5,1-.4,2.9c-2.4,16.2-5.3,34.3-8.7,53.8-3.6,1.9-7.1,3.4-10.3,4.3M399.4,77.5c-4.5,1.3-10.1,7.2-24.1,61.2-8.8,33.9-18.9,75.6-30.2,124.1-.8,3.4-1.6,6.9-2.4,10.4-.2,1-.5,2.1-.7,3.1l-3.8,16.5.5,1.3c1.4,3.6,3,6.7,5,9.3,1.7,2.3,3.7,4.2,5.9,5.7,1.1.8,2.3,1.4,3.6,2,6.3,2.7,13.5,2.9,21.5.5s9.1-3.4,14.1-6.1l2-1.1.4-2.5c3.3-19.3,6.3-37.3,8.7-53.6,6.1-2.5,16.5-7,30.8-13.2,3.8,25.5,5.3,31.2,6.2,33.3,1.6,3.8,5.3,6.8,11.4,8.9,5.3,1.9,11.3,3.1,17.8,3.4,6.6.4,12,0,16.4-1.4s3.4-1.2,4.4-1.8h.2c4.3-3,5.2-9.7,3.1-24s-3.5-19.3-6.6-31.9c-3-12.3-4.9-20.1-5.5-23.2l-5.6-22.6c-3.7-16.1-8-32.8-12.7-49.8-4.8-17.3-8.3-28.3-10.4-33.7-1.6-4.1-5.6-7.3-12.6-10.1-6.1-2.5-12.9-4.2-20.2-5.1-7.5-.9-13.1-.8-17,.4"/>
      <path class="st0" d="M533.3,153.9v-6.4c-.2-5.6,0-16.7.1-33.1l.2-32.5,2.8-1.3c3.8-1.8,7.5-3.2,10.9-4.2,9.8-2.9,18.1-3,24.7-.2,7.1,3,11.3,8.3,12.4,15.7s-2,20.7-10.4,31.4c-7.9,10.1-19.8,19.4-35.4,27.6l-5.3,2.8M522.7,48.5c-13.9,4.1-27.6,10.1-40.6,17.9-1.5,5.9-1.8,11.4-1.1,16.3s3.7,11.8,8.3,15.3l13.1-6.4v6.3c0,6.3-.3,16.6-.7,30.6-.4,14.4-.8,24.2-1.1,30-2.2,61.5-2.1,78.4-1.6,81.7s.7,2.8,6.3,6.6c4.6,3.1,9.8,5.4,15.6,7,5.4,1.5,9.9,1.7,13.4.8.2-.3,1.3-2,1.6-8.1.4-7.4.3-18.9-.3-34.2-.4-7.9-.7-16.9-.9-26.9v-3.6c0,0,3.1-1.2,3.1-1.2,18.4-7.1,34.2-16.3,46.8-27.4,12.5-11,21.6-23,27.1-35.6,5.4-12.4,7.2-24.5,5.5-36s-7.2-22.4-16.3-28.7c-9.2-6.5-20.8-10-34.3-10.5-13.8-.5-28.6,1.5-43.9,6.1"/>
      <path class="st1" d="M541.3,139.9c0-6.1,0-15,.2-26.3l.2-25.9c2.5-1,4.8-1.9,7-2.5,8.1-2.4,14.8-2.5,19.9-.4,4.7,2,7.3,5.1,7.9,9.6,1.1,7.3-1.6,15-8.2,23.4-6.1,7.8-15.2,15.3-27,22.1M547.4,76.5c-3.4,1-7.1,2.4-10.9,4.2l-2.8,1.3-.2,32.5c-.2,16.4-.3,27.5-.2,33.1v6.4c0,0,5.4-2.8,5.4-2.8,15.6-8.3,27.6-17.6,35.4-27.6,8.4-10.7,11.9-21.3,10.4-31.4s-5.3-12.7-12.4-15.7c-6.6-2.8-14.9-2.7-24.7.2M489.3,98c-4.6-3.5-7.3-8.5-8.3-15.3s-.3-10.3,1.1-16.3c13.1-7.8,26.7-13.8,40.6-17.9s30.1-6.6,43.9-6.1c13.5.5,25,4.1,34.3,10.5,9,6.3,14.4,15.7,16.3,28.7s-.2,23.6-5.5,36c-5.5,12.6-14.6,24.6-27.1,35.6-12.6,11.1-28.4,20.4-46.8,27.4l-3.1,1.2v3.6c.2,9.9.5,19,.9,26.9.6,15.3.7,26.8.3,34.2-.3,6-1.4,7.8-1.6,8.1-3.4,1-7.9.7-13.4-.8-5.8-1.6-11-4-15.6-7-5.7-3.8-6.3-6.2-6.3-6.6-.5-3.3-.6-20.2,1.6-81.7.3-5.8.6-15.6,1.1-30,.4-14,.7-24.3.7-30.6v-6.3s-13.1,6.4-13.1,6.4M521.4,39.8c-15.2,4.5-30.1,11.2-44.3,19.8l-1.6,1-.6,2c-2.3,8.1-2.9,15.7-1.9,22.5,1.5,9.9,5.9,17.4,13.3,22.1l1.6,1,6.2-3c-.1,6-.3,14.1-.6,24-.4,14.3-.8,24.1-1.1,29.9-2.4,67.6-2,80.1-1.5,83.6s3.7,8.2,9.7,12.2c5.2,3.5,11.1,6.2,17.6,8,6.9,1.9,12.6,2.1,17.4.7,7.5-2.2,8.1-13.5,8.3-17.2.4-7.7.3-19.5-.3-35.2-.4-6.8-.6-14.6-.8-23,18-7.3,33.6-16.6,46.3-27.8,13.6-12,23.6-25.2,29.7-39.2,6.2-14.3,8.3-28.3,6.3-41.7s-8.8-26.7-19.5-34.2c-10.3-7.3-23.1-11.2-38-11.8-14.6-.6-30.1,1.6-46.3,6.4"/>
    </g>
  </g>
</svg>